<svg width="16" height="16" viewBox="0 0 16 16" fill="none" xmlns="http://www.w3.org/2000/svg">
<rect width="16" height="16" rx="8" fill="#6366F1"/>
<path d="M6.72168 12.09L4.69168 7.38L4.70168 7.45V12H3.32168V4.56L4.65168 4.4L6.58168 8.99L6.57168 8.87V4.5H7.95168V11.93L6.72168 12.09ZM10.1918 12V5.72H8.73176V4.5H13.1418L13.0018 5.72H11.6518V12H10.1918Z" fill="white"/>
<path d="M6.72168 12.09L4.69168 7.38L4.70168 7.45V12H3.32168V4.56L4.65168 4.4L6.58168 8.99L6.57168 8.87V4.5H7.95168V11.93L6.72168 12.09ZM10.1918 12V5.72H8.73176V4.5H13.1418L13.0018 5.72H11.6518V12H10.1918Z" fill="white"/>
</svg>
