<svg width="126" height="62" viewBox="0 0 126 62" fill="none" xmlns="http://www.w3.org/2000/svg">
<rect width="112" height="48" rx="10" fill="#6366F1" fill-opacity="0.5"/>
<path d="M7 17C7 11.4772 11.4772 7 17 7H109C114.523 7 119 11.4772 119 17V45C119 50.5228 114.523 55 109 55H17C11.4772 55 7 50.5228 7 45V17Z" fill="#6369F1" fill-opacity="0.5"/>
<rect x="14" y="14" width="112" height="48" rx="10" fill="#6366F1"/>
<path d="M64.4408 45.348L65.3048 44.772C63.7448 41.772 62.9648 38.484 62.9648 34.908C62.9648 32.124 63.6488 29.76 65.0168 27.816C66.4088 25.872 68.3648 24.9 70.8848 24.9C72.2048 24.9 73.3208 25.128 74.2328 25.584C73.9928 26.928 73.5608 29.268 72.9368 32.604C71.5928 39.78 70.9208 43.896 70.9208 44.952C70.9208 47.232 71.3048 48.936 72.0728 50.064C71.0168 50.76 70.0448 51.24 69.1568 51.504C68.2688 51.768 67.1168 51.9 65.7008 51.9C64.3088 51.9 63.0368 51.6 61.8848 51C60.7568 50.4 59.8208 49.608 59.0768 48.624C58.3568 47.616 57.7448 46.38 57.2408 44.916C56.3528 42.348 55.8128 39.084 55.6208 35.124H55.0448C53.9408 40.116 53.3888 43.608 53.3888 45.6C53.3888 47.592 53.7488 49.164 54.4688 50.316C53.0288 51.396 51.5288 51.936 49.9688 51.936C48.4088 51.936 47.2928 51.492 46.6208 50.604C45.9488 49.692 45.6128 48.348 45.6128 46.572C45.6128 44.772 46.3688 39.696 47.8808 31.344L45.9728 27.492C48.6608 25.764 51.0608 24.9 53.1728 24.9C55.2848 24.9 56.8808 25.272 57.9608 26.016C59.0408 26.736 59.7968 27.804 60.2288 29.22C60.6608 30.636 60.9728 32.136 61.1648 33.72C61.3808 35.28 61.7408 37.164 62.2448 39.372C62.7728 41.58 63.5048 43.572 64.4408 45.348ZM75.425 31.128C75.425 29.184 75.929 27.72 76.937 26.736C77.945 25.752 79.145 25.26 80.537 25.26C81.953 25.26 83.873 25.5 86.297 25.98C88.721 26.46 90.545 26.712 91.769 26.736C93.809 26.352 95.753 25.884 97.601 25.332C97.793 25.956 97.889 26.736 97.889 27.672C97.889 29.616 97.325 31.08 96.197 32.064C95.093 33.048 93.677 33.54 91.949 33.54C91.517 33.54 90.941 33.516 90.221 33.468C88.901 40.404 88.241 44.28 88.241 45.096C88.241 47.424 88.601 49.164 89.321 50.316C87.881 51.396 86.381 51.936 84.821 51.936C83.261 51.936 82.145 51.492 81.473 50.604C80.801 49.692 80.465 48.348 80.465 46.572C80.465 44.772 81.161 39.996 82.553 32.244C79.841 32.604 77.561 33.012 75.713 33.468C75.521 32.868 75.425 32.088 75.425 31.128Z" fill="white"/>
</svg>
